<?xml version="1.0" encoding="utf-8"?>
<!-- Generator: Adobe Illustrator 26.0.3, SVG Export Plug-In . SVG Version: 6.00 Build 0)  -->
<svg version="1.1" id="Layer_1" xmlns="http://www.w3.org/2000/svg" xmlns:xlink="http://www.w3.org/1999/xlink" x="0px" y="0px"
	 viewBox="0 0 500 500" style="enable-background:new 0 0 500 500;" xml:space="preserve">
<style type="text/css">
	.st0{fill:#FFFFFF;}
</style>
<g>
	<path class="st0" d="M428.61,217.62c-0.72,27.97-17.18,77.36-50.46,77c-19.63-0.21-33.34-14.28-46.42-27.1
		c-12.81-12.55-51.16-42.92-70.08-25.43c-3.7,3.42-5.07,8.62-6.08,13.55c-8.25,40.1-4.62,82.85-19.91,120.83
		c-9.63,23.92-31.94,46.77-60.18,40.18c-21.13-4.93-27.61-20.33-31.4-39.25c-2.34-11.68-4.64-39.58-20.57-41.35
		c-19.81-2.2-30.34,52.05-43.12,62.55c-17.97,14.76-32.11-4.29-34.06-21.36c-2.21-19.36,4.42-38.94,15-55.3
		c13.99-21.61,72.07-91.11,98.14-49.03c5.2,8.4,6.41,18.61,7.28,28.45s1.59,20,6.03,28.84c6.42,12.76,16.27,7.69,19.87-3.65
		c10.48-33.08,9.82-66.86,16.8-100.41c5.65-27.14,19.08-50.11,46.52-59.45c32.59-11.09,73.24,33.18,95.43,50.94
		c13.46,10.78,27.54,15.96,20.45-13c-4.86-19.85-38-86.99-2.78-93.88c6.32-1.24,12.99,0.23,18.12,4.12
		c28.73,21.76,41.96,67.49,41.46,101.76C428.63,216.98,428.62,217.3,428.61,217.62z"/>
	<g>
		<g>
			<path class="st0" d="M453.5,104.31c0,12.25-9.62,21.87-22.14,21.87c-12.39,0-22.27-9.62-22.27-21.87
				c0-11.99,9.88-21.61,22.27-21.61C443.88,82.7,453.5,92.32,453.5,104.31z M414.63,104.31c0,9.62,7.12,17.26,16.87,17.26
				c9.49,0,16.47-7.64,16.47-17.13c0-9.62-6.98-17.39-16.6-17.39C421.74,87.05,414.63,94.82,414.63,104.31z M427.94,115.64h-5.01
				V94.03c1.98-0.4,4.74-0.66,8.3-0.66c4.08,0,5.93,0.66,7.51,1.58c1.19,0.92,2.11,2.64,2.11,4.74c0,2.37-1.84,4.22-4.48,5.01v0.26
				c2.11,0.79,3.29,2.37,3.95,5.27c0.66,3.29,1.05,4.61,1.58,5.4h-5.4c-0.66-0.79-1.05-2.77-1.71-5.27
				c-0.4-2.37-1.71-3.43-4.48-3.43h-2.37V115.64z M428.07,103.39h2.37c2.77,0,5.01-0.92,5.01-3.16c0-1.98-1.45-3.29-4.61-3.29
				c-1.32,0-2.24,0.13-2.77,0.26V103.39z"/>
		</g>
	</g>
</g>
</svg>
